<svg xmlns="http://www.w3.org/2000/svg" width="24" height="24" fill="none">
  <path stroke="#fff" stroke-linecap="round" stroke-linejoin="round" stroke-width="1.8"
    d="M21.9 9.3H2.1m16.2-5.7L12 9.3 5.7 3.6m15.78 4.618-2.62-3.986c-.205-.34-.307-.51-.447-.633a1.2 1.2 0 0 0-.427-.242c-.178-.057-.377-.057-.773-.057H6.787c-.396 0-.595 0-.773.057a1.2 1.2 0 0 0-.427.242c-.14.123-.242.293-.446.633L2.52 8.218c-.235.392-.356.587-.396.795a1.2 1.2 0 0 0 .024.553c.057.203.19.389.456.76l7.836 9.066c.526.734.79 1.094 1.116 1.224a1.2 1.2 0 0 0 .888 0c.326-.13.59-.49 1.116-1.224l7.836-9.067c.266-.37.399-.556.456-.76.05-.18.06-.369.024-.552-.04-.208-.161-.403-.396-.795Z" />
  <path fill="#fff" d="M21.646 9.265H2.144l9.966 11.687 9.536-11.687Z" />
</svg>