<svg width="99" height="19" viewBox="0 0 99 19" fill="none" xmlns="http://www.w3.org/2000/svg">
    <path fill-rule="evenodd" clip-rule="evenodd"
        d="M0 17.9963L17.2931 3.59619C17.5049 3.4115 17.6765 3.18527 17.7973 2.93151C17.9181 2.67775 17.9854 2.40189 17.9952 2.12103C18.0049 1.84016 17.9569 1.56029 17.854 1.29877C17.7511 1.03725 17.5956 0.799651 17.3971 0.600715C17.1981 0.401794 16.9603 0.245913 16.6985 0.142784C16.4367 0.0396544 16.1565 -0.00852112 15.8753 0.00123374C15.5941 0.0109886 15.3179 0.0784672 15.0639 0.19949C14.8099 0.320512 14.5834 0.492483 14.3987 0.704715L0 17.9963ZM8.34155 2.65729L1.06095 8.11728L6.5214 0.837288C6.63308 0.688442 6.77542 0.56531 6.93879 0.476202C7.10216 0.387094 7.2828 0.33409 7.46842 0.32078C7.65404 0.30747 7.84033 0.33416 8.01474 0.399047C8.18916 0.463933 8.34759 0.565505 8.47937 0.696894C8.61136 0.828508 8.7135 0.986958 8.77887 1.16151C8.84424 1.33606 8.8713 1.52264 8.85823 1.70857C8.84516 1.8945 8.79229 2.07544 8.70314 2.23913C8.61399 2.40283 8.49065 2.54543 8.34155 2.65729ZM17.1572 11.4745L9.8766 16.9345L15.337 9.65455C15.4487 9.5057 15.5911 9.38255 15.7544 9.29344C15.9178 9.20434 16.0984 9.15133 16.284 9.13802C16.4696 9.12471 16.6559 9.1514 16.8303 9.21629C17.0047 9.28118 17.1632 9.38275 17.295 9.51414C17.427 9.64575 17.5292 9.80422 17.5945 9.97877C17.6599 10.1533 17.6869 10.3399 17.6739 10.5258C17.6608 10.7117 17.6079 10.8927 17.5187 11.0564C17.4296 11.2201 17.3063 11.3627 17.1572 11.4745Z"
        fill="white" />
    <path fill-rule="evenodd" clip-rule="evenodd"
        d="M27.6475 9.0009C27.6475 6.62309 29.6687 4.56408 32.4701 4.56408C33.8588 4.56408 35.0993 5.07083 35.9816 5.86717C36.0343 5.91476 36.1156 5.91298 36.1646 5.8616L37.8515 4.09387C37.9006 4.04248 37.8987 3.961 37.8465 3.91288C36.4532 2.62914 34.5408 1.8634 32.4701 1.8634C28.325 1.8634 24.9468 4.98794 24.9468 9.0009C24.9468 13.0139 28.325 16.1384 32.4701 16.1384C34.3131 16.1384 36.1345 15.5204 37.4838 14.4606L37.9509 14.0938C37.9819 14.0694 38 14.0321 38 13.9926V13.3987V12.078L38 12.078L38 12.078V10.4156L38 10.4156L38 10.4156V7.97209C38 7.90107 37.9424 7.84349 37.8714 7.84349H34.4546C34.4192 7.84349 34.3853 7.85808 34.361 7.88382L32.176 10.1987C32.0986 10.2807 32.1567 10.4156 32.2695 10.4156H35.1707C35.2417 10.4156 35.2993 10.4731 35.2993 10.5442V12.216L35.2993 12.216L35.2994 12.216V12.6128C35.2994 12.6585 35.2752 12.7008 35.2354 12.7233C34.4517 13.1659 33.4752 13.4377 32.4701 13.4377C29.6687 13.4377 27.6475 11.3787 27.6475 9.0009ZM73.5584 2.18496H70.5319C70.4261 2.18496 70.3655 2.3056 70.4288 2.39043L75.3616 9.00745C75.3959 9.05351 75.3956 9.11675 75.3607 9.1624L70.4336 15.6103C70.3689 15.6949 70.4292 15.8169 70.5357 15.8169H73.812C73.8526 15.8169 73.8908 15.7978 73.9151 15.7652L77.0541 11.5544C77.1056 11.4854 77.2089 11.4854 77.2603 11.5544L80.3994 15.7652C80.4236 15.7978 80.4619 15.8169 80.5025 15.8169H83.7787C83.8852 15.8169 83.9456 15.6949 83.8809 15.6103L78.9538 9.1624C78.9189 9.11675 78.9185 9.05351 78.9529 9.00745L83.8857 2.39043C83.9489 2.3056 83.8884 2.18496 83.7826 2.18496H80.7561C80.716 2.18496 80.6782 2.20364 80.6539 2.23548L77.2594 6.67764C77.2079 6.745 77.1065 6.745 77.055 6.67764L73.6606 2.23548C73.6362 2.20364 73.5984 2.18496 73.5584 2.18496ZM49.6837 2.18485H46.7645C46.7136 2.18485 46.6675 2.21483 46.6469 2.26133L40.7166 15.6361C40.6789 15.7211 40.7411 15.8168 40.8341 15.8168H43.6384C43.6897 15.8168 43.7361 15.7863 43.7564 15.7392L44.8899 13.1162H51.5582L52.6917 15.7392C52.712 15.7863 52.7584 15.8168 52.8097 15.8168H55.614C55.707 15.8168 55.7693 15.7211 55.7316 15.6361L49.8012 2.26133C49.7806 2.21483 49.7345 2.18485 49.6837 2.18485ZM50.5024 10.6727H45.9457L48.106 5.67321C48.1507 5.56975 48.2974 5.56975 48.3421 5.67321L50.5024 10.6727ZM58.9579 2.18491C58.8869 2.18491 58.8293 2.24248 58.8293 2.31351V15.6883C58.8293 15.7593 58.8869 15.8169 58.9579 15.8169H61.7872L61.7881 15.8169H66.4832C66.5225 15.8169 66.5597 15.7989 66.5841 15.768L68.3101 13.5817C68.3767 13.4974 68.3166 13.3734 68.2092 13.3734H61.9158V2.31351C61.9158 2.24248 61.8582 2.18491 61.7872 2.18491H58.9579ZM98.189 2.18496C98.2586 2.18496 98.315 2.24137 98.315 2.31096V4.49796C98.315 4.56755 98.2586 4.62396 98.189 4.62396H90.2105C90.1409 4.62396 90.0845 4.68037 90.0845 4.74996V7.58893C90.0845 7.65852 90.1409 7.71493 90.2105 7.71493H97.6746C97.7442 7.71493 97.8006 7.77134 97.8006 7.84093V10.0279C97.8006 10.0975 97.7442 10.1539 97.6746 10.1539H90.2105C90.1409 10.1539 90.0845 10.2103 90.0845 10.2799V13.2519C90.0845 13.3215 90.1409 13.3779 90.2105 13.3779H98.4462C98.5158 13.3779 98.5722 13.4344 98.5722 13.5039V15.6909C98.5722 15.7605 98.5158 15.8169 98.4462 15.8169H87.125C87.0554 15.8169 86.999 15.7605 86.999 15.6909V14.8084C86.999 14.8081 86.9988 14.8079 86.9985 14.8079C86.9982 14.8079 86.998 14.8077 86.998 14.8074V3.19592C86.998 3.19486 86.9988 3.194 86.9999 3.194C87.001 3.194 87.0018 3.19314 87.0018 3.19208V2.31096C87.0018 2.24137 87.0582 2.18496 87.1278 2.18496H98.189Z"
        fill="white" />
</svg>