<svg width="24" height="24" viewBox="0 0 24 24" fill="currentColor" xmlns="http://www.w3.org/2000/svg">
  <path
    d="M15.9 6.00016C15.9 8.15407 14.1539 9.90016 12 9.90016C9.84609 9.90016 8.1 8.15407 8.1 6.00016C8.1 3.84625 9.84609 2.10016 12 2.10016C14.1539 2.10016 15.9 3.84625 15.9 6.00016Z"
    fill="currentColor" />
  <path
    d="M4.5 19.9502C4.5 16.7193 7.11913 14.1002 10.35 14.1002H13.65C16.8809 14.1002 19.5 16.7193 19.5 19.9502C19.5 21.0271 18.627 21.9002 17.55 21.9002H6.45C5.37304 21.9002 4.5 21.0271 4.5 19.9502Z"
    fill="currentColor" />
  <path
    d="M15.9 6.00016C15.9 8.15407 14.1539 9.90016 12 9.90016C9.84609 9.90016 8.1 8.15407 8.1 6.00016C8.1 3.84625 9.84609 2.10016 12 2.10016C14.1539 2.10016 15.9 3.84625 15.9 6.00016Z"
    stroke="currentColor" stroke-width="1.8" stroke-linejoin="round" />
  <path
    d="M4.5 19.9502C4.5 16.7193 7.11913 14.1002 10.35 14.1002H13.65C16.8809 14.1002 19.5 16.7193 19.5 19.9502C19.5 21.0271 18.627 21.9002 17.55 21.9002H6.45C5.37304 21.9002 4.5 21.0271 4.5 19.9502Z"
    stroke="currentColor" stroke-width="1.8" stroke-linejoin="round" />
</svg>