<svg xmlns="http://www.w3.org/2000/svg" width="24" height="24" fill="none">
  <path fill="#fff"
    d="M15.9 6a3.9 3.9 0 1 1-7.8 0 3.9 3.9 0 0 1 7.8 0ZM4.5 19.95a5.85 5.85 0 0 1 5.85-5.85h3.3a5.85 5.85 0 0 1 5.85 5.85 1.95 1.95 0 0 1-1.95 1.95H6.45a1.95 1.95 0 0 1-1.95-1.95Z" />
  <path stroke="#fff" stroke-linejoin="round" stroke-width="1.8"
    d="M15.9 6a3.9 3.9 0 1 1-7.8 0 3.9 3.9 0 0 1 7.8 0ZM4.5 19.95a5.85 5.85 0 0 1 5.85-5.85h3.3a5.85 5.85 0 0 1 5.85 5.85 1.95 1.95 0 0 1-1.95 1.95H6.45a1.95 1.95 0 0 1-1.95-1.95Z" />
</svg>